<?xml version="1.0" encoding="UTF-8"?>
<svg width="107px" height="107px" viewBox="0 0 107 107" version="1.1" xmlns="http://www.w3.org/2000/svg" xmlns:xlink="http://www.w3.org/1999/xlink">
    <!-- Generator: Sketch Beta 43 (38963) - http://www.bohemiancoding.com/sketch -->
    <title>008-happy-smiling-emoticon-face-with-open-mouth</title>
    <desc>Created with Sketch Beta.</desc>
    <defs></defs>
    <g id="Page-1" stroke="none" stroke-width="1" fill="none" fill-rule="evenodd">
        <g id="008-happy-smiling-emoticon-face-with-open-mouth" fill-rule="nonzero" fill="#04CB03">
            <path d="M90.544,90.542 C111.231,69.858 111.229,36.201 90.546,15.518 C69.858,-5.171 36.199,-5.171 15.515,15.512 C-5.173,36.199 -5.171,69.858 15.517,90.546 C36.199,111.23 69.858,111.23 90.544,90.542 Z M21.302,21.3 C38.796,3.807 67.261,3.805 84.759,21.302 C102.253,38.796 102.251,67.265 84.757,84.757 C67.263,102.251 38.797,102.253 21.302,84.76 C3.804,67.262 3.806,38.794 21.302,21.3 Z M27,69.865 C27,69.865 24.042,58.427 33.705,60.991 C33.705,60.991 50.849,70.286 72.356,60.991 C82.018,58.428 79.061,69.865 79.061,69.865 C73.539,86.824 53.03,85.444 53.03,85.444 C53.03,85.444 32.521,86.824 27,69.865 Z M33.24,38.671 C33.24,35.247 36.017,32.47 39.441,32.47 C42.864,32.47 45.641,35.247 45.641,38.671 C45.641,42.097 42.864,44.874 39.441,44.874 C36.017,44.874 33.24,42.096 33.24,38.671 Z M61.357,38.671 C61.357,35.247 64.136,32.47 67.56,32.47 C70.983,32.47 73.76,35.247 73.76,38.671 C73.76,42.097 70.984,44.874 67.56,44.874 C64.136,44.874 61.357,42.096 61.357,38.671 Z" id="Shape"></path>
        </g>
    </g>
</svg>