<?xml version="1.0" encoding="UTF-8"?>
<svg width="107px" height="107px" viewBox="0 0 107 107" version="1.1" xmlns="http://www.w3.org/2000/svg" xmlns:xlink="http://www.w3.org/1999/xlink">
    <!-- Generator: Sketch Beta 43 (38963) - http://www.bohemiancoding.com/sketch -->
    <title>003-sad-emoticon-square-face-with-closed-eyes</title>
    <desc>Created with Sketch Beta.</desc>
    <defs></defs>
    <g id="Page-1" stroke="none" stroke-width="1" fill="none" fill-rule="evenodd">
        <g id="003-sad-emoticon-square-face-with-closed-eyes" fill-rule="nonzero" fill="#D23E07">
            <path d="M90.544,90.542 C111.231,69.857 111.229,36.2 90.546,15.518 C69.858,-5.172 36.199,-5.172 15.515,15.513 C-5.173,36.198 -5.171,69.858 15.517,90.547 C36.199,111.23 69.858,111.23 90.544,90.542 Z M21.302,21.3 C38.796,3.807 67.261,3.805 84.759,21.302 C102.253,38.796 102.251,67.264 84.757,84.757 C67.263,102.251 38.797,102.253 21.302,84.759 C3.804,67.263 3.806,38.794 21.302,21.3 Z M58.857,41.671 C58.857,36.873 62.76,32.97 67.56,32.97 C72.357,32.97 76.26,36.872 76.26,41.671 C76.26,43.052 75.141,44.171 73.76,44.171 C72.379,44.171 71.26,43.052 71.26,41.671 C71.26,39.63 69.6,37.97 67.56,37.97 C65.518,37.97 63.857,39.63 63.857,41.671 C63.857,43.052 62.738,44.171 61.357,44.171 C59.976,44.171 58.857,43.051 58.857,41.671 Z M31.134,41.644 C31.134,36.847 35.038,32.943 39.837,32.943 C44.634,32.943 48.538,36.846 48.538,41.644 C48.538,43.025 47.419,44.144 46.038,44.144 C44.657,44.144 43.538,43.025 43.538,41.644 C43.538,39.603 41.878,37.943 39.837,37.943 C37.795,37.943 36.134,39.603 36.134,41.644 C36.134,43.025 35.015,44.144 33.634,44.144 C32.253,44.144 31.134,43.024 31.134,41.644 Z M31.025,74.074 C34.735,65.142 43.789,59.371 54.088,59.371 C64.172,59.371 73.172,65.113 77.015,74.001 C77.673,75.522 76.974,77.287 75.453,77.944 C73.932,78.604 72.168,77.902 71.51,76.382 C68.616,69.693 61.78,65.37 54.089,65.37 C46.221,65.37 39.342,69.689 36.567,76.374 C36.088,77.528 34.971,78.225 33.796,78.225 C33.412,78.225 33.023,78.151 32.646,77.995 C31.114,77.36 30.389,75.604 31.025,74.074 Z" id="Shape"></path>
        </g>
    </g>
</svg>