<?xml version="1.0" encoding="UTF-8"?>
<svg width="107px" height="107px" viewBox="0 0 107 107" version="1.1" xmlns="http://www.w3.org/2000/svg" xmlns:xlink="http://www.w3.org/1999/xlink">
    <!-- Generator: Sketch Beta 43 (38963) - http://www.bohemiancoding.com/sketch -->
    <title>005-crying-emoticon-rounded-square-face</title>
    <desc>Created with Sketch Beta.</desc>
    <defs></defs>
    <g id="Page-1" stroke="none" stroke-width="1" fill="none" fill-rule="evenodd">
        <g id="005-crying-emoticon-rounded-square-face" fill-rule="nonzero" fill="#EE731C">
            <path d="M15.515,15.512 C-5.172,36.198 -5.17,69.858 15.517,90.547 C36.199,111.231 69.858,111.231 90.544,90.543 C111.23,69.858 111.228,36.201 90.546,15.519 C69.858,-5.172 36.199,-5.172 15.515,15.512 Z M84.758,84.758 C67.265,102.252 38.797,102.254 21.303,84.76 C3.805,67.263 3.807,38.794 21.303,21.3 C38.796,3.806 67.263,3.804 84.76,21.301 C102.254,38.795 102.252,67.265 84.758,84.758 Z M54.091,59.371 C64.175,59.371 73.175,65.113 77.018,74.001 C77.676,75.522 76.977,77.287 75.455,77.944 C73.935,78.604 72.171,77.902 71.513,76.382 C68.617,69.692 61.78,65.37 54.091,65.37 C46.222,65.37 39.343,69.689 36.568,76.374 C36.089,77.528 34.972,78.225 33.797,78.225 C33.413,78.225 33.024,78.151 32.647,77.995 C31.117,77.359 30.392,75.603 31.028,74.074 C34.735,65.143 43.789,59.371 54.091,59.371 Z M33.24,38.67 C33.24,35.247 36.017,32.469 39.441,32.469 C42.864,32.469 45.64,35.246 45.64,38.67 C45.64,42.096 42.864,44.873 39.441,44.873 C36.017,44.873 33.24,42.096 33.24,38.67 Z M61.357,38.67 C61.357,35.247 64.137,32.469 67.559,32.469 C70.983,32.469 73.76,35.246 73.76,38.67 C73.76,42.096 70.983,44.873 67.559,44.873 C64.138,44.873 61.357,42.096 61.357,38.67 Z M20.587,48.067 C22.961,45.584 29.086,45.766 29.086,45.766 C27.505,48.055 27.184,49.957 27.184,49.957 C26.809,52.113 25.642,53.333 25.642,53.333 C23.078,56.017 20.431,53.443 20.431,53.443 C17.827,50.955 20.587,48.067 20.587,48.067 Z M20.993,63.692 C22.645,61.963 26.91,62.09 26.91,62.09 C25.809,63.683 25.585,65.007 25.585,65.007 C25.324,66.508 24.512,67.358 24.512,67.358 C22.727,69.227 20.884,67.434 20.884,67.434 C19.071,65.703 20.993,63.692 20.993,63.692 Z" id="Shape"></path>
        </g>
    </g>
</svg>