<?xml version="1.0" encoding="UTF-8"?>
<svg width="107px" height="107px" viewBox="0 0 107 107" version="1.1" xmlns="http://www.w3.org/2000/svg" xmlns:xlink="http://www.w3.org/1999/xlink">
    <!-- Generator: Sketch Beta 43 (38963) - http://www.bohemiancoding.com/sketch -->
    <title>maybe</title>
    <desc>Created with Sketch Beta.</desc>
    <defs></defs>
    <g id="Page-1" stroke="none" stroke-width="1" fill="none" fill-rule="evenodd">
        <g id="maybe">
            <g id="emoticon-square-face-with-closed-eyes-and-mouth-of-straight-lines" transform="translate(30.000000, 67.000000)">
                <g id="Group"></g>
            </g>
            <g id="sad-face-in-rounded-square" fill-rule="nonzero" fill="#E6AB22">
                <path d="M90.545,90.542 C111.231,69.857 111.229,36.2 90.547,15.518 C69.857,-5.172 36.198,-5.172 15.514,15.513 C-5.173,36.198 -5.171,69.858 15.516,90.547 C36.198,111.23 69.857,111.23 90.545,90.542 L90.545,90.542 Z M21.301,21.3 C38.794,3.807 67.261,3.805 84.759,21.302 C102.253,38.796 102.251,67.264 84.757,84.757 C67.263,102.251 38.795,102.253 21.301,84.759 C3.803,67.263 3.805,38.794 21.301,21.3 L21.301,21.3 Z" id="Shape"></path>
                <path d="M30.423,71.029 C30.423,72.95 31.981,74.508 33.902,74.508 L72.161,74.508 C74.083,74.508 75.64,72.95 75.64,71.029 C75.64,69.108 74.082,67.551 72.161,67.551 L33.901,67.551 C31.98,67.552 30.423,69.108 30.423,71.029 L30.423,71.029 Z" id="Shape"></path>
                <path d="M33.24,38.671 C33.24,35.247 36.017,32.47 39.441,32.47 C42.864,32.47 45.641,35.246 45.641,38.671 C45.641,42.097 42.864,44.873 39.441,44.873 C36.017,44.873 33.24,42.097 33.24,38.671 L33.24,38.671 Z M61.357,38.671 C61.357,35.247 64.136,32.47 67.56,32.47 C70.983,32.47 73.76,35.246 73.76,38.671 C73.76,42.097 70.984,44.873 67.56,44.873 C64.136,44.873 61.357,42.097 61.357,38.671 L61.357,38.671 Z" id="Shape"></path>
            </g>
        </g>
    </g>
</svg>