<?xml version="1.0" encoding="UTF-8"?>
<svg width="107px" height="107px" viewBox="0 0 107 107" version="1.1" xmlns="http://www.w3.org/2000/svg" xmlns:xlink="http://www.w3.org/1999/xlink">
    <!-- Generator: Sketch Beta 43 (38963) - http://www.bohemiancoding.com/sketch -->
    <title>002-smiling-happy-emoticon-face</title>
    <desc>Created with Sketch Beta.</desc>
    <defs></defs>
    <g id="Page-1" stroke="none" stroke-width="1" fill="none" fill-rule="evenodd">
        <g id="002-smiling-happy-emoticon-face" fill-rule="nonzero" fill="#7BDF13">
            <path d="M90.546,15.518 C69.858,-5.172 36.2,-5.172 15.516,15.513 C-5.172,36.198 -5.17,69.858 15.518,90.546 C36.2,111.231 69.858,111.231 90.544,90.542 C111.23,69.858 111.228,36.2 90.546,15.518 Z M84.757,84.757 C67.264,102.251 38.796,102.253 21.302,84.76 C3.804,67.263 3.807,38.794 21.302,21.3 C38.796,3.807 67.262,3.805 84.759,21.302 C102.253,38.796 102.251,67.265 84.757,84.757 Z M78.546,61.065 C78.812,61.469 78.857,61.979 78.664,62.421 C74.379,72.324 64.346,78.725 53.101,78.725 C41.615,78.725 31.521,72.294 27.387,62.343 C27.202,61.9 27.252,61.395 27.518,60.995 C27.785,60.598 28.232,60.357 28.71,60.357 L28.712,60.357 L77.349,60.418 C77.833,60.419 78.282,60.662 78.546,61.065 Z M33.96,42.312 C33.216,41.289 32.771,40.033 32.771,38.669 C32.771,35.244 35.548,32.468 38.971,32.468 C42.395,32.468 45.171,35.244 45.171,38.669 C45.171,39.983 44.759,41.201 44.061,42.205 C42.934,40.656 41.112,39.644 39.05,39.644 C36.941,39.646 35.08,40.703 33.96,42.312 Z M62.078,42.312 C61.334,41.289 60.889,40.033 60.889,38.669 C60.889,35.244 63.666,32.468 67.089,32.468 C70.513,32.468 73.289,35.244 73.289,38.669 C73.289,39.983 72.877,41.201 72.179,42.205 C71.052,40.656 69.231,39.644 67.168,39.644 C65.058,39.646 63.198,40.703 62.078,42.312 Z" id="Shape"></path>
        </g>
    </g>
</svg>