<?xml version="1.0" encoding="UTF-8"?>
<svg width="107px" height="107px" viewBox="0 0 107 107" version="1.1" xmlns="http://www.w3.org/2000/svg" xmlns:xlink="http://www.w3.org/1999/xlink">
    <!-- Generator: Sketch Beta 43 (38963) - http://www.bohemiancoding.com/sketch -->
    <title>super-no</title>
    <desc>Created with Sketch Beta.</desc>
    <defs></defs>
    <g id="Page-1" stroke="none" stroke-width="1" fill="none" fill-rule="evenodd">
        <g id="super-no" fill-rule="nonzero" fill="#851509">
            <path d="M53.029,0.001 C39.442,0.001 25.856,5.171 15.514,15.513 C-5.173,36.2 -5.171,69.858 15.516,90.546 C25.857,100.889 39.443,106.059 53.029,106.059 C66.615,106.059 80.201,100.887 90.546,90.54 C111.232,69.856 111.23,36.201 90.548,15.518 C80.202,5.173 66.615,0.001 53.029,0.001 L53.029,0.001 Z M84.758,84.757 C76.01,93.505 64.52,97.878 53.029,97.88 C41.539,97.88 30.049,93.507 21.301,84.761 C19.113,82.573 17.2,80.214 15.56,77.728 C4.078,60.317 5.993,36.609 21.301,21.3 C30.049,12.553 41.539,8.18 53.029,8.18 C64.519,8.18 76.009,12.553 84.758,21.301 C102.254,38.796 102.252,67.264 84.758,84.757 L84.758,84.757 Z M24.688,52.313 C23.476,51.18 23.414,49.28 24.546,48.067 C25.678,46.854 27.564,46.776 28.793,47.924 C32.044,50.977 35.382,48.166 35.752,47.836 C36.857,46.846 38.493,46.824 39.619,47.717 C39.752,47.821 39.878,47.94 39.995,48.071 C41.101,49.307 40.996,51.206 39.76,52.313 C37.096,54.698 30.552,57.798 24.688,52.313 L24.688,52.313 Z M81.502,48.036 C82.607,49.272 82.503,51.171 81.267,52.278 C78.603,54.663 72.059,57.762 66.195,52.278 C64.983,51.145 64.922,49.245 66.053,48.032 C67.184,46.819 69.071,46.741 70.3,47.889 C73.551,50.942 76.889,48.131 77.259,47.801 C78.363,46.811 80,46.789 81.126,47.682 C81.259,47.786 81.384,47.905 81.502,48.036 L81.502,48.036 Z M77.017,79.333 C77.675,80.854 76.976,82.62 75.454,83.278 C73.934,83.938 72.17,83.237 71.512,81.715 C68.617,75.027 61.781,70.702 54.09,70.702 C46.223,70.702 39.344,75.022 36.567,81.709 C36.088,82.86 34.971,83.559 33.796,83.559 C33.413,83.559 33.023,83.486 32.647,83.33 C31.117,82.693 30.392,80.937 31.027,79.408 C34.738,70.475 43.791,64.705 54.091,64.705 C64.175,64.704 73.175,70.446 77.017,79.333 Z M35.535066,58.536341 C37.4877113,60.4889863 37.4875778,63.654778 35.535066,65.6072898 C33.5825542,67.5598017 30.416629,67.5598017 28.4642506,65.6071564 C26.5114719,63.6546445 26.5117388,60.4887193 28.4641172,58.536341 L31.999725,55.001 L35.535066,58.536341 Z M77.535066,58.536341 C79.4877113,60.4889863 79.4875778,63.654778 77.535066,65.6072898 C75.5825542,67.5598017 72.416629,67.5598017 70.4642506,65.6071564 C68.5114719,63.6546445 68.5117388,60.4887193 70.4641172,58.536341 L73.999725,55.001 L77.535066,58.536341 Z" id="Shape"></path>
        </g>
    </g>
</svg>