<?xml version="1.0" encoding="UTF-8"?>
<svg width="560px" height="560px" viewBox="0 0 560 560" version="1.1" xmlns="http://www.w3.org/2000/svg" xmlns:xlink="http://www.w3.org/1999/xlink">
    <!-- Generator: Sketch Beta 43 (38998) - http://www.bohemiancoding.com/sketch -->
    <title>user-add</title>
    <desc>Created with Sketch Beta.</desc>
    <defs></defs>
    <g id="Page-1" stroke="none" stroke-width="1" fill="none" fill-rule="evenodd">
        <g id="user-add">
            <g id="Oval">
                <g id="path-1-link" fill="#000000">
                    <circle id="path-1" cx="280" cy="280" r="280"></circle>
                </g>
                <circle stroke="#FFFFFF" stroke-width="25" cx="280" cy="280" r="267.5"></circle>
            </g>
            <g id="Group" transform="translate(93.000000, 130.000000)" fill-rule="nonzero" fill="#FFFFFF">
                <path d="M318.443878,58.3235369 L304.515306,58.3235369 L304.515306,12.4459288 C304.515306,5.85916031 299.158163,0.49783715 292.576531,0.49783715 L225.765306,0.49783715 L149.693878,0.49783715 L82.8826531,0.49783715 C76.2244898,0.49783715 70.8673469,5.85916031 70.8673469,12.4459288 L70.8673469,103.435242 L94.744898,103.435242 L94.744898,24.3940204 L149.693878,24.3940204 L225.688776,24.3940204 L280.561224,24.3940204 L280.561224,58.3235369 L280.408163,58.3235369 L266.326531,58.3235369 C263.80102,58.3235369 262.270408,61.1573791 263.72449,63.3019084 L289.744898,101.980025 C290.969388,103.818193 293.72449,103.818193 295.02551,101.980025 L321.045918,63.3019084 C322.5,61.1573791 320.969388,58.3235369 318.443878,58.3235369 Z" id="Shape"></path>
                <path d="M163.852041,263.662214 C142.193878,245.816667 118.77551,234.021756 114.030612,231.647455 C113.494898,231.417684 113.188776,230.881552 113.188776,230.26883 L113.188776,213.725318 C115.714286,209.359669 117.397959,204.687659 118.010204,200.475191 C119.846939,200.32201 122.295918,197.717939 124.897959,188.450509 C128.265306,176.579008 125.127551,174.204707 122.066327,174.204707 C122.372449,173.209033 122.602041,172.213359 122.755102,171.141094 C128.188776,138.360433 112.040816,137.211578 112.040816,137.211578 C112.040816,137.211578 109.362245,132.080025 102.321429,128.173919 C97.5765306,125.340076 90.994898,123.195547 82.3469388,123.96145 C79.5153061,124.114631 76.9132653,124.650763 74.3877551,125.493257 C71.1734694,126.565522 68.2653061,128.173919 65.6632653,130.012087 C62.4489796,132.080025 59.3877551,134.607506 56.6326531,137.441349 C52.3469388,141.806997 48.5204082,147.474682 46.9132653,154.520992 C45.5357143,159.805725 45.8418367,165.320229 46.9897959,171.217684 C47.1428571,172.213359 47.4489796,173.209033 47.6785714,174.281298 C44.6938776,174.357888 41.6326531,176.808779 45,188.527099 C47.6020408,197.794529 50.0510204,200.398601 51.8877551,200.551781 C52.5,204.764249 54.1836735,209.359669 56.7091837,213.801908 L56.7091837,230.34542 C56.8622449,230.804962 56.4795918,231.341094 55.9438776,231.647455 C51.1989796,233.945165 27.9336735,245.740076 6.2755102,263.509033 C2.29591837,266.725827 2.84217094e-14,271.551018 2.84217094e-14,276.68257 L2.84217094e-14,292.000636 C2.84217094e-14,296.749237 3.82653061,300.655344 8.64795918,300.655344 L161.326531,300.655344 C166.071429,300.655344 169.97449,296.825827 169.97449,292.000636 L169.97449,276.68257 C169.97449,271.627608 167.755102,266.879008 163.852041,263.662214 Z" id="Shape"></path>
                <path d="M368.265306,263.585623 C346.607143,245.740076 323.188776,233.945165 318.443878,231.570865 C317.908163,231.341094 317.602041,230.804962 317.602041,230.192239 L317.602041,213.648728 C320.127551,209.283079 321.811224,204.611069 322.423469,200.398601 C324.260204,200.24542 326.709184,197.641349 329.311224,188.373919 C332.678571,176.502417 329.540816,174.128117 326.479592,174.128117 C326.785714,173.132443 327.015306,172.136768 327.168367,171.064504 C332.602041,138.283842 316.454082,137.134987 316.454082,137.134987 C316.454082,137.134987 313.77551,132.003435 306.734694,128.097328 C301.989796,125.263486 295.408163,123.118957 286.760204,123.88486 C283.928571,124.038041 281.326531,124.574173 278.80102,125.416667 C275.586735,126.488931 272.678571,128.097328 270.076531,129.935496 C266.862245,132.003435 263.80102,134.530916 261.045918,137.364758 C256.760204,141.730407 252.933673,147.398092 251.326531,154.444402 C249.94898,159.729135 250.255102,165.243639 251.403061,171.141094 C251.556122,172.136768 251.862245,173.132443 252.091837,174.204707 C249.107143,174.281298 246.045918,176.732188 249.413265,188.450509 C252.015306,197.717939 254.464286,200.32201 256.30102,200.475191 C256.913265,204.687659 258.596939,209.283079 261.122449,213.725318 L261.122449,230.26883 C261.122449,230.881552 260.816327,231.417684 260.280612,231.647455 C255.535714,233.945165 232.270408,245.740076 210.612245,263.509033 C206.632653,266.725827 204.336735,271.551018 204.336735,276.68257 L204.336735,292.000636 C204.413265,296.749237 208.239796,300.578753 213.061224,300.578753 L365.739796,300.578753 C370.484694,300.578753 374.387755,296.749237 374.387755,291.924046 L374.387755,276.60598 C374.387755,271.551018 372.168367,266.802417 368.265306,263.585623 Z" id="Shape"></path>
            </g>
        </g>
    </g>
</svg>