<?xml version="1.0" encoding="UTF-8"?>
<svg width="107px" height="107px" viewBox="0 0 107 107" version="1.1" xmlns="http://www.w3.org/2000/svg" xmlns:xlink="http://www.w3.org/1999/xlink">
    <!-- Generator: Sketch Beta 43 (38963) - http://www.bohemiancoding.com/sketch -->
    <title>Shape</title>
    <desc>Created with Sketch Beta.</desc>
    <defs></defs>
    <g id="Page-1" stroke="none" stroke-width="1" fill="none" fill-rule="evenodd">
        <g id="007-annulled-emoticon-square-face" fill-rule="nonzero" fill="#A50909">
            <path d="M90.544,90.542 C111.231,69.857 111.229,36.2 90.546,15.518 C69.858,-5.172 36.199,-5.172 15.516,15.513 C-5.173,36.198 -5.171,69.858 15.518,90.547 C36.199,111.23 69.858,111.23 90.544,90.542 Z M21.302,21.3 C38.795,3.807 67.262,3.805 84.759,21.302 C102.253,38.796 102.251,67.264 84.757,84.757 C67.264,102.251 38.795,102.253 21.302,84.759 C3.804,67.263 3.807,38.794 21.302,21.3 Z M32.969,40.431 L34.728,38.672 L32.968,36.91 C31.735,35.678 31.672,33.681 32.825,32.366 C32.85,32.331 32.903,32.269 32.962,32.21 C34.239,30.932 36.422,30.939 37.68,32.198 L39.44,33.957 L41.2,32.197 C42.398,30.998 44.467,30.935 45.744,32.052 C45.785,32.081 45.85,32.138 45.911,32.198 C46.54,32.827 46.887,33.663 46.888,34.552 C46.888,35.442 46.542,36.279 45.912,36.907 L44.152,38.668 L45.91,40.427 C46.54,41.056 46.887,41.893 46.887,42.781 C46.887,43.672 46.541,44.509 45.911,45.138 C44.653,46.398 42.459,46.399 41.199,45.138 L39.441,43.38 L37.683,45.138 C37.052,45.768 36.216,46.115 35.327,46.115 C34.437,46.115 33.6,45.768 32.971,45.138 C31.671,43.844 31.671,41.73 32.969,40.431 Z M61.086,40.415 L62.845,38.656 L61.085,36.895 C59.853,35.662 59.789,33.666 60.942,32.351 C60.966,32.316 61.02,32.254 61.079,32.194 C62.356,30.917 64.539,30.924 65.797,32.183 L67.557,33.942 L69.318,32.182 C70.515,30.983 72.585,30.92 73.862,32.036 C73.903,32.066 73.967,32.122 74.029,32.182 C74.658,32.811 75.005,33.647 75.006,34.536 C75.006,35.427 74.66,36.264 74.03,36.892 L72.27,38.652 L74.028,40.411 C74.658,41.041 75.005,41.878 75.005,42.766 C75.005,43.656 74.659,44.493 74.029,45.122 C72.771,46.383 70.577,46.384 69.317,45.122 L67.558,43.364 L65.8,45.124 C65.169,45.755 64.333,46.102 63.445,46.102 C62.554,46.102 61.717,45.755 61.089,45.124 C59.787,43.829 59.787,41.716 61.086,40.415 Z M30.177,73.685 L30.177,69.58 C30.177,69.028 30.625,68.58 31.177,68.58 C32.445,68.58 34.986,67.604 36.081,66.076 C36.269,65.814 36.572,65.659 36.894,65.659 L36.895,65.659 C37.218,65.659 37.52,65.815 37.708,66.078 C38.827,67.645 40.657,68.581 42.603,68.581 C44.552,68.581 46.382,67.645 47.499,66.079 C47.687,65.816 47.989,65.66 48.312,65.66 L48.313,65.66 C48.635,65.66 48.938,65.815 49.126,66.077 C50.25,67.645 52.083,68.581 54.028,68.581 C55.976,68.581 57.807,67.645 58.928,66.078 C59.303,65.554 60.179,65.554 60.555,66.078 C61.676,67.645 63.507,68.581 65.453,68.581 C67.401,68.581 69.232,67.645 70.353,66.078 C70.541,65.816 70.842,65.66 71.165,65.66 L71.165,65.66 C71.487,65.66 71.79,65.815 71.978,66.077 C73.073,67.606 75.612,68.581 76.877,68.581 C77.429,68.581 77.877,69.029 77.877,69.581 L77.877,73.685 C77.877,74.237 77.429,74.685 76.877,74.685 C75.211,74.685 72.78,73.752 71.189,72.284 C69.697,73.805 67.627,74.685 65.45,74.685 C63.286,74.685 61.228,73.814 59.738,72.31 C58.248,73.814 56.19,74.685 54.025,74.685 C51.862,74.685 49.803,73.814 48.311,72.31 C46.823,73.814 44.765,74.685 42.599,74.685 C40.423,74.685 38.355,73.805 36.864,72.284 C35.272,73.753 32.84,74.685 31.173,74.685 C30.625,74.685 30.177,74.237 30.177,73.685 Z" id="Shape"></path>
        </g>
    </g>
</svg>