<?xml version="1.0" encoding="UTF-8"?>
<svg width="107px" height="107px" viewBox="0 0 107 107" version="1.1" xmlns="http://www.w3.org/2000/svg" xmlns:xlink="http://www.w3.org/1999/xlink">
    <!-- Generator: Sketch Beta 43 (38963) - http://www.bohemiancoding.com/sketch -->
    <title>yes</title>
    <desc>Created with Sketch Beta.</desc>
    <defs></defs>
    <g id="Page-1" stroke="none" stroke-width="1" fill="none" fill-rule="evenodd">
        <g id="yes" fill-rule="nonzero" fill="#2ECC71">
            <path d="M90.546,15.518 C69.858,-5.172 36.199,-5.172 15.515,15.513 C-5.173,36.198 -5.171,69.858 15.517,90.547 C36.199,111.231 69.858,111.231 90.544,90.543 C111.23,69.858 111.229,36.2 90.546,15.518 L90.546,15.518 Z M84.757,84.758 C67.263,102.252 38.797,102.254 21.302,84.76 C3.804,67.263 3.806,38.794 21.302,21.3 C38.796,3.807 67.261,3.805 84.759,21.302 C102.253,38.796 102.251,67.265 84.757,84.758 L84.757,84.758 Z M33.24,38.671 C33.24,35.247 36.017,32.47 39.441,32.47 C42.864,32.47 45.641,35.246 45.641,38.671 C45.641,42.097 42.864,44.873 39.441,44.873 C36.017,44.873 33.24,42.097 33.24,38.671 L33.24,38.671 Z M61.357,38.671 C61.357,35.247 64.136,32.47 67.56,32.47 C70.983,32.47 73.76,35.246 73.76,38.671 C73.76,42.097 70.984,44.873 67.56,44.873 C64.136,44.873 61.357,42.097 61.357,38.671 L61.357,38.671 Z M76.017,67.2927544 C72.174,74.220742 63.174,78.697 53.09,78.697 C42.789,78.697 33.736,74.1981346 30.026,67.2350666 C29.39,66.0431129 30.115,64.674198 31.646,64.1783952 C32.022,64.0575627 32.412,63.9998749 32.796,63.9998749 C33.972,63.9998749 35.088,64.5416721 35.567,65.4420688 C38.344,70.6542355 45.222,74.020394 53.09,74.020394 C60.78,74.020394 67.618,70.6518968 70.51,65.4366119 C71.168,64.2508946 72.934,63.7044201 74.454,64.2181529 C75.974,64.7318858 76.675,66.1078167 76.017,67.2927544 L76.017,67.2927544 Z" id="Shape"></path>
        </g>
    </g>
</svg>