<?xml version="1.0" encoding="UTF-8"?>
<svg width="107px" height="107px" viewBox="0 0 107 107" version="1.1" xmlns="http://www.w3.org/2000/svg" xmlns:xlink="http://www.w3.org/1999/xlink">
    <!-- Generator: Sketch Beta 40.1 (33801) - http://www.bohemiancoding.com/sketch -->
    <title>Group 2</title>
    <desc>Created with Sketch Beta.</desc>
    <defs></defs>
    <g id="Page-1" stroke="none" stroke-width="1" fill="none" fill-rule="evenodd">
        <g id="Group-2" fill="#E67E22">
            <g id="emoticon-square-face-with-closed-eyes-and-mouth-of-straight-lines">
                <g id="Group">
                    <path d="M90.545,90.542 C111.231,69.857 111.229,36.2 90.547,15.518 C69.857,-5.172 36.198,-5.172 15.514,15.513 C-5.173,36.198 -5.171,69.858 15.516,90.547 C36.198,111.23 69.857,111.23 90.545,90.542 L90.545,90.542 Z M21.301,21.3 C38.794,3.807 67.261,3.805 84.759,21.302 C102.253,38.796 102.251,67.264 84.757,84.757 C67.263,102.251 38.795,102.253 21.301,84.759 C3.803,67.263 3.805,38.794 21.301,21.3 L21.301,21.3 Z" id="Shape"></path>
                    <path d="M30.423,71.029 C30.423,72.95 31.981,74.508 33.902,74.508 L72.161,74.508 C74.083,74.508 75.64,72.95 75.64,71.029 C75.64,69.108 74.082,67.551 72.161,67.551 L33.901,67.551 C31.98,67.552 30.423,69.108 30.423,71.029 L30.423,71.029 Z" id="Shape"></path>
                </g>
            </g>
            <g id="sad-face-in-rounded-square" transform="translate(33.000000, 32.000000)">
                <path d="M0.24,6.671 C0.24,3.247 3.017,0.47 6.441,0.47 C9.864,0.47 12.641,3.246 12.641,6.671 C12.641,10.097 9.864,12.873 6.441,12.873 C3.017,12.873 0.24,10.097 0.24,6.671 L0.24,6.671 Z M28.357,6.671 C28.357,3.247 31.136,0.47 34.56,0.47 C37.983,0.47 40.76,3.246 40.76,6.671 C40.76,10.097 37.984,12.873 34.56,12.873 C31.136,12.873 28.357,10.097 28.357,6.671 L28.357,6.671 Z" id="Shape"></path>
            </g>
        </g>
    </g>
</svg>