<?xml version="1.0" encoding="UTF-8"?>
<svg width="107px" height="107px" viewBox="0 0 107 107" version="1.1" xmlns="http://www.w3.org/2000/svg" xmlns:xlink="http://www.w3.org/1999/xlink">
    <!-- Generator: Sketch Beta 40.1 (33801) - http://www.bohemiancoding.com/sketch -->
    <title>smiling-square-face</title>
    <desc>Created with Sketch Beta.</desc>
    <defs></defs>
    <g id="Page-1" stroke="none" stroke-width="1" fill="none" fill-rule="evenodd">
        <g id="smiling-square-face" transform="translate(0.000000, -1.000000)" fill="#27AE60">
            <path d="M15.515,16.511 C-5.173,37.198 -5.171,70.858 15.517,91.545 C36.199,112.231 69.858,112.231 90.544,91.541 C111.231,70.857 111.229,37.2 90.546,16.517 C69.858,-4.172 36.199,-4.172 15.515,16.511 L15.515,16.511 Z M84.757,85.756 C67.263,103.25 38.797,103.252 21.302,85.759 C3.804,68.262 3.806,39.793 21.302,22.299 C38.796,4.806 67.261,4.804 84.759,22.301 C102.253,39.795 102.251,68.263 84.757,85.756 L84.757,85.756 Z M74.907,61.117 C74.103,61.117 73.201,61.249 72.156,61.532 C65.876,64.246 59.356,65.622 52.775,65.622 C41.597,65.622 34.017,61.592 33.942,61.552 C33.907,61.533 33.87,61.52 33.833,61.508 C32.986,61.282 32.013,61.144 31.164,61.124 L31.164,61.129 C31.132,61.123 31.1,61.12 31.068,61.12 C31.06,61.12 30.976,61.117 30.967,61.117 C30.92,61.117 30.874,61.125 30.829,61.138 C29.282,61.211 28.086,61.796 27.274,62.876 C25.176,65.665 26.459,70.772 26.523,71.02 C31.342,85.821 47.181,86.97 51.921,86.97 C52.593,86.97 52.998,86.947 53.002,86.943 C53.06,86.947 53.464,86.97 54.136,86.97 C58.876,86.97 74.715,85.821 79.543,70.99 C79.6,70.771 80.907,65.59 78.754,62.81 C77.885,61.686 76.591,61.117 74.907,61.117 L74.907,61.117 Z M74.821,70.03 C70.952,81.706 57.979,82.613 54.094,82.613 C53.575,82.613 53.27,82.594 53.261,82.594 C53.185,82.588 53.108,82.585 53.03,82.585 C52.953,82.585 52.877,82.588 52.808,82.593 C52.764,82.595 52.461,82.613 51.962,82.613 C48.078,82.613 35.106,81.706 31.25,70.073 C30.881,68.533 30.84,66.244 31.338,65.605 C31.405,65.519 31.676,65.483 31.884,65.478 C32.21,65.485 32.755,65.532 33.245,65.641 C35.3,66.655 42.528,69.809 52.783,69.809 C59.569,69.809 66.286,68.41 72.671,65.673 C73.209,65.541 73.681,65.474 74.074,65.474 C74.337,65.474 74.643,65.507 74.717,65.603 C75.219,66.246 75.178,68.532 74.821,70.03 L74.821,70.03 Z M33.24,39.67 C33.24,36.246 36.017,33.469 39.441,33.469 C42.864,33.469 45.641,36.246 45.641,39.67 C45.641,43.096 42.864,45.873 39.441,45.873 C36.017,45.873 33.24,43.095 33.24,39.67 L33.24,39.67 Z M61.357,39.67 C61.357,36.246 64.136,33.469 67.56,33.469 C70.983,33.469 73.76,36.246 73.76,39.67 C73.76,43.096 70.984,45.873 67.56,45.873 C64.136,45.873 61.357,43.095 61.357,39.67 L61.357,39.67 Z" id="Shape"></path>
        </g>
    </g>
</svg>